# xmcd CD database file
#
# Track frame offsets:
#	150
#	17232
#	59295
#	95915
#	117835
#	136962
#	162610
#
# Disc length: 2529 seconds
#
# Revision: 1
# Processed by: cddbd v1.5.2PL0 Copyright (c) Steve Scherf et al.
# Submitted via: CDex 1.70beta2
#
DISCID=6109df07
DTITLE=Ahmad Jamal - Poinciana Revisited
DYEAR=1969
DGENRE=Jazz
TTITLE0=Have You Met Miss Jones?
TTITLE1=Poinciana
TTITLE2=Lament
TTITLE3=Call Me
TTITLE4=Theme From Valley of The Dolls
TTITLE5=Frank's Tune
TTITLE6=How Insentive
EXTD=YEAR: 1969
EXTT0=
EXTT1=
EXTT2=
EXTT3=
EXTT4=
EXTT5=
EXTT6=
PLAYORDER=
